<svg width="410" height="120" viewBox="0 0 410 120" fill="none" xmlns="http://www.w3.org/2000/svg">
<path d="M62.3154 0L52.8555 6.50863L44.0869 0H0.166992V19.3465H42.8708V78.962L52.6635 84.6251L62.6098 78.8724V19.3465H105.339V0H62.3154Z" fill="#F7931E"/>
<path d="M0 89.6988L52.7653 119.449L105.505 89.7116V34.9904L87.4302 44.2665V79.1415L52.7653 98.693L18.0749 79.1287V44.0487L0 34.7854V89.6988Z" fill="#F7931E"/>
<path d="M335.627 107.905H337.701V118.488H335.627V107.905ZM340.747 109.904C340.466 109.788 340.146 109.724 339.774 109.724C339.122 109.724 338.61 109.904 338.238 110.275C337.88 110.634 337.688 111.146 337.688 111.787L337.47 109.75C337.79 109.122 338.213 108.622 338.738 108.277C339.25 107.931 339.826 107.751 340.453 107.751C340.939 107.751 341.375 107.815 341.759 107.956C342.143 108.097 342.488 108.302 342.783 108.571L341.426 110.403C341.259 110.186 341.029 110.019 340.747 109.904Z" fill="#A5AFC9"/>
<path d="M346.021 118.103C345.369 117.745 344.869 117.219 344.536 116.528C344.191 115.836 344.024 115.003 344.024 114.042V112.325C344.024 111.364 344.191 110.544 344.536 109.865C344.882 109.186 345.381 108.661 346.021 108.302C346.674 107.943 347.455 107.764 348.377 107.764C349.298 107.764 350.079 107.943 350.732 108.302C351.385 108.661 351.884 109.173 352.23 109.865C352.575 110.544 352.742 111.364 352.742 112.325V114.08C352.742 115.041 352.575 115.874 352.23 116.553C351.884 117.232 351.385 117.757 350.732 118.116C350.079 118.475 349.298 118.654 348.377 118.654C347.455 118.642 346.674 118.462 346.021 118.103ZM350.054 115.977C350.45 115.515 350.642 114.888 350.642 114.055V112.299C350.642 111.479 350.45 110.839 350.054 110.39C349.657 109.942 349.094 109.724 348.364 109.724C347.634 109.724 347.071 109.942 346.674 110.39C346.277 110.839 346.073 111.479 346.073 112.299V114.055C346.073 114.875 346.277 115.515 346.674 115.977C347.071 116.438 347.634 116.656 348.364 116.656C349.106 116.656 349.657 116.438 350.054 115.977Z" fill="#A5AFC9"/>
<path d="M355.687 103.664H357.76V118.488H355.687V103.664ZM358.695 118.168C358.208 117.847 357.85 117.399 357.619 116.822L357.76 114.606C357.76 115.067 357.837 115.451 358.004 115.772C358.17 116.092 358.4 116.335 358.708 116.502C359.015 116.669 359.386 116.758 359.834 116.758C360.525 116.758 361.05 116.553 361.434 116.13C361.805 115.708 361.997 115.118 361.997 114.362V112.069C361.997 111.3 361.805 110.698 361.434 110.262C361.063 109.84 360.525 109.622 359.834 109.622C359.399 109.622 359.015 109.699 358.708 109.865C358.4 110.032 358.157 110.262 358.004 110.583C357.837 110.903 357.76 111.275 357.76 111.723L357.543 109.686C357.863 109.071 358.285 108.584 358.797 108.251C359.309 107.918 359.885 107.751 360.512 107.751C361.255 107.751 361.895 107.918 362.433 108.251C362.97 108.584 363.367 109.084 363.649 109.724C363.93 110.365 364.071 111.146 364.071 112.056V114.362C364.071 115.259 363.93 116.028 363.649 116.669C363.367 117.309 362.945 117.796 362.394 118.129C361.844 118.462 361.191 118.629 360.423 118.629C359.757 118.642 359.194 118.475 358.695 118.168Z" fill="#A5AFC9"/>
<path d="M368.73 118.103C368.077 117.745 367.578 117.219 367.245 116.528C366.9 115.836 366.733 115.003 366.733 114.042V112.325C366.733 111.364 366.9 110.544 367.245 109.865C367.591 109.186 368.09 108.661 368.73 108.302C369.383 107.943 370.164 107.764 371.086 107.764C372.007 107.764 372.788 107.943 373.441 108.302C374.094 108.661 374.593 109.173 374.939 109.865C375.284 110.544 375.451 111.364 375.451 112.325V114.08C375.451 115.041 375.284 115.874 374.939 116.553C374.593 117.232 374.094 117.757 373.441 118.116C372.788 118.475 372.007 118.654 371.086 118.654C370.164 118.642 369.383 118.462 368.73 118.103ZM372.763 115.977C373.159 115.515 373.351 114.888 373.351 114.055V112.299C373.351 111.479 373.159 110.839 372.763 110.39C372.366 109.942 371.803 109.724 371.073 109.724C370.343 109.724 369.78 109.942 369.383 110.39C368.986 110.839 368.782 111.479 368.782 112.299V114.055C368.782 114.875 368.986 115.515 369.383 115.977C369.78 116.438 370.343 116.656 371.073 116.656C371.803 116.656 372.366 116.438 372.763 115.977Z" fill="#A5AFC9"/>
<path d="M377.575 107.905H382.337V109.775H377.575V107.905ZM379.265 117.834C378.868 117.36 378.663 116.668 378.663 115.746V104.843H380.737V115.772C380.737 116.028 380.788 116.233 380.891 116.374C380.993 116.515 381.147 116.579 381.339 116.579H382.337V118.552H381.134C380.289 118.539 379.662 118.296 379.265 117.834Z" fill="#A5AFC9"/>
<path d="M385.192 103.664H387.266V105.74H385.192V103.664ZM385.192 107.905H387.266V118.488H385.192V107.905Z" fill="#A5AFC9"/>
<path d="M392.22 118.104C391.542 117.745 391.017 117.219 390.659 116.528C390.3 115.836 390.121 115.016 390.121 114.042V112.3C390.121 111.339 390.3 110.519 390.659 109.84C391.017 109.161 391.542 108.648 392.22 108.289C392.899 107.931 393.731 107.751 394.691 107.751C395.241 107.751 395.754 107.815 396.24 107.956C396.726 108.084 397.162 108.277 397.546 108.533C397.93 108.789 398.25 109.084 398.519 109.455L397.021 110.801C396.726 110.467 396.368 110.198 395.971 110.019C395.574 109.84 395.152 109.75 394.717 109.75C393.91 109.75 393.296 109.968 392.848 110.416C392.412 110.865 392.182 111.492 392.182 112.312V114.055C392.182 114.888 392.4 115.541 392.835 115.99C393.27 116.438 393.897 116.669 394.704 116.669C395.139 116.669 395.561 116.566 395.971 116.374C396.368 116.182 396.714 115.9 397.008 115.541L398.506 116.989C398.237 117.348 397.917 117.642 397.533 117.886C397.149 118.129 396.714 118.321 396.227 118.449C395.741 118.578 395.229 118.642 394.691 118.642C393.731 118.642 392.912 118.462 392.22 118.104Z" fill="#A5AFC9"/>
<path d="M402.794 118.449C402.244 118.321 401.732 118.142 401.258 117.899C400.784 117.655 400.349 117.348 399.939 116.976L401.168 115.451C401.744 115.887 402.308 116.207 402.871 116.425C403.434 116.643 403.985 116.745 404.535 116.745C405.354 116.745 405.969 116.617 406.378 116.361C406.788 116.105 406.993 115.72 406.993 115.221C406.993 114.875 406.878 114.631 406.66 114.452C406.442 114.285 406.161 114.17 405.828 114.106C405.495 114.055 405.021 113.991 404.42 113.952C404.369 113.952 404.305 113.952 404.241 113.952C404.177 113.952 404.125 113.94 404.061 113.94C404.036 113.94 404.01 113.94 403.985 113.94C403.959 113.94 403.933 113.94 403.908 113.94C403.216 113.888 402.64 113.786 402.167 113.645C401.693 113.504 401.296 113.222 400.976 112.825C400.656 112.428 400.503 111.851 400.503 111.108C400.503 110.365 400.656 109.737 400.964 109.237C401.271 108.738 401.719 108.366 402.333 108.123C402.935 107.879 403.69 107.751 404.599 107.751C405.149 107.751 405.674 107.802 406.173 107.905C406.673 108.007 407.146 108.161 407.607 108.353C408.068 108.558 408.503 108.802 408.926 109.109L407.671 110.634C407.146 110.288 406.622 110.045 406.109 109.865C405.597 109.699 405.098 109.609 404.612 109.609C403.908 109.609 403.383 109.724 403.024 109.968C402.666 110.211 402.5 110.57 402.5 111.057C402.5 111.339 402.602 111.556 402.807 111.697C403.012 111.838 403.255 111.941 403.562 111.979C403.869 112.031 404.305 112.069 404.868 112.107C404.906 112.107 404.957 112.12 404.996 112.12C405.034 112.12 405.085 112.12 405.137 112.133H405.201C405.226 112.133 405.239 112.133 405.265 112.146C406.007 112.197 406.634 112.287 407.159 112.441C407.684 112.594 408.119 112.889 408.465 113.325C408.823 113.76 408.99 114.401 408.99 115.246C408.99 116.002 408.823 116.643 408.503 117.143C408.183 117.642 407.684 118.014 407.031 118.27C406.378 118.526 405.559 118.642 404.561 118.642C403.921 118.642 403.344 118.578 402.794 118.449Z" fill="#A5AFC9"/>
<path d="M185.127 21V21.0641L176.909 25.8046L168.895 21.1794V21H145.713V36.7207H168.755V65.5739V84.3439L176.781 88.9819L184.999 84.2286V65.4714V36.7207H205.762V21H185.127Z" fill="#A5AFC9"/>
<path d="M376.693 30.5189L359.949 20.9609L341.836 31.5695L323.032 20.9609L306.646 30.2755L307.005 84.8173L314.929 89.4041L323.044 84.7148V84.292V39.8462V39.2569L341.836 50.1089L360.641 39.2569L360.833 84.8173L368.756 89.4041L376.872 84.7148L376.693 30.5189Z" fill="#A5AFC9"/>
<path d="M274.913 20.9609V60.4099L256.121 71.2747L237.329 60.4099L237.15 20.9609H221.11L221.277 69.686L256.121 89.8141L290.952 69.686V20.9609H274.913Z" fill="#A5AFC9"/>
<path d="M393.948 20.7559V65.7782V84.3304L401.872 88.9043L410.001 84.215V65.6757V20.7559H393.948Z" fill="#A5AFC9"/>
</svg>
